PathFileType	4	(X/Y/Z)	C:\Users\86182\Documents\cortex\Trimmed_M4_H8.trc
DataRate	CameraRate	NumFrames	NumMarkers	Units	OrigDataRate	OrigDataStartFrame	OrigNumFrames
100.00	100.00	       172	2	mm	100.00	1	       901
Frame#	Time	gripper			box			
		X1	Y1	Z1	X2	Y2	Z2	

1	0.000	277.07007	150.13467	192.37756	280.43323	147.03770	57.43765	
2	0.010	277.07294	150.13135	192.37546	280.43298	147.03743	57.43774	
3	0.020	277.07657	150.12770	192.37378	280.43289	147.03731	57.43778	
4	0.030	277.08026	150.12428	192.37274	280.43277	147.03714	57.43784	
5	0.040	277.08334	150.12181	192.37224	280.43231	147.03677	57.43800	
6	0.050	277.08524	150.12090	192.37224	280.43167	147.03624	57.43822	
7	0.060	277.08554	150.12178	192.37288	280.43121	147.03590	57.43837	
8	0.070	277.08414	150.12421	192.37436	280.43143	147.03607	57.43829	
9	0.080	277.08121	150.12749	192.37680	280.43234	147.03680	57.43798	
10	0.090	277.07706	150.13069	192.38034	280.43350	147.03772	57.43758	
11	0.100	277.07214	150.13326	192.38489	280.43423	147.03828	57.43734	
12	0.110	277.06735	150.13503	192.38983	280.43414	147.03822	57.43737	
13	0.120	277.06378	150.13605	192.39441	280.43356	147.03775	57.43758	
14	0.130	277.06210	150.13643	192.39806	280.43323	147.03741	57.43773	
15	0.140	277.06207	150.13623	192.40053	280.43384	147.03780	57.43757	
16	0.150	277.06290	150.13554	192.40173	280.43552	147.03900	57.43707	
17	0.160	277.06387	150.13470	192.40186	280.43765	147.04053	57.43642	
18	0.170	277.06451	150.13422	192.40125	280.43936	147.04169	57.43593	
19	0.180	277.06482	150.13431	192.40028	280.44019	147.04219	57.43571	
20	0.190	277.06516	150.13477	192.39909	280.44022	147.04218	57.43573	
21	0.200	277.06601	150.13530	192.39774	280.43982	147.04190	57.43583	
22	0.210	277.06747	150.13580	192.39632	280.43921	147.04153	57.43592	
23	0.220	277.06931	150.13634	192.39494	280.43854	147.04109	57.43600	
24	0.230	277.07101	150.13687	192.39365	280.43787	147.04057	57.43604	
25	0.240	277.07217	150.13725	192.39255	280.43738	147.04007	57.43600	
26	0.250	277.07272	150.13733	192.39178	280.43704	147.03955	57.43590	
27	0.260	277.07294	150.13708	192.39145	280.43658	147.03888	57.43586	
28	0.270	277.07306	150.13670	192.39148	280.43591	147.03804	57.43595	
29	0.280	277.07300	150.13657	192.39182	280.43512	147.03728	57.43619	
30	0.290	277.07269	150.13693	192.39230	280.43451	147.03691	57.43648	
31	0.300	277.07233	150.13763	192.39276	280.43460	147.03728	57.43662	
32	0.310	277.07233	150.13818	192.39299	280.43588	147.03865	57.43637	
33	0.320	277.07309	150.13814	192.39290	280.43842	147.04099	57.43568	
34	0.330	277.07477	150.13760	192.39268	280.44153	147.04370	57.43475	
35	0.340	277.07721	150.13701	192.39256	280.44446	147.04619	57.43383	
36	0.350	277.08005	150.13657	192.39256	280.44669	147.04805	57.43311	
37	0.360	277.08261	150.13631	192.39255	280.44775	147.04892	57.43275	
38	0.370	277.08426	150.13622	192.39244	280.44733	147.04857	57.43286	
39	0.380	277.08472	150.13625	192.39230	280.44562	147.04715	57.43339	
40	0.390	277.08414	150.13617	192.39227	280.44333	147.04527	57.43408	
41	0.400	277.08282	150.13573	192.39250	280.44135	147.04361	57.43465	
42	0.410	277.08087	150.13490	192.39320	280.44016	147.04260	57.43497	
43	0.420	277.07855	150.13397	192.39453	280.43970	147.04222	57.43507	
44	0.430	277.07620	150.13341	192.39642	280.43961	147.04214	57.43511	
45	0.440	277.07407	150.13345	192.39845	280.43945	147.04204	57.43519	
46	0.450	277.07220	150.13397	192.40012	280.43912	147.04172	57.43531	
47	0.460	277.07089	150.13487	192.40091	280.43863	147.04115	57.43543	
48	0.470	277.07040	150.13622	192.40048	280.43808	147.04039	57.43549	
49	0.480	277.07101	150.13800	192.39877	280.43768	147.03961	57.43540	
50	0.490	277.07257	150.14012	192.39615	280.43753	147.03893	57.43520	
51	0.500	277.07486	150.14220	192.39311	280.43741	147.03836	57.43499	
52	0.510	277.07773	150.14378	192.39009	280.43695	147.03777	57.43502	
53	0.520	277.08130	150.14439	192.38733	280.43585	147.03703	57.43546	
54	0.530	277.08557	150.14369	192.38504	280.43408	147.03606	57.43627	
55	0.540	277.09039	150.14189	192.38344	280.43195	147.03491	57.43729	
56	0.550	277.09515	150.13974	192.38245	280.42990	147.03384	57.43826	
57	0.560	277.09915	150.13802	192.38190	280.42850	147.03320	57.43896	
58	0.570	277.10162	150.13696	192.38177	280.42810	147.03323	57.43925	
59	0.580	277.10214	150.13637	192.38223	280.42871	147.03395	57.43913	
60	0.590	277.10080	150.13589	192.38319	280.43015	147.03523	57.43867	
61	0.600	277.09827	150.13541	192.38426	280.43216	147.03687	57.43799	
62	0.610	277.09549	150.13499	192.38495	280.43469	147.03888	57.43712	
63	0.620	277.09308	150.13495	192.38496	280.43793	147.04138	57.43603	
64	0.630	277.09109	150.13542	192.38417	280.44174	147.04433	57.43474	
65	0.640	277.08896	150.13618	192.38274	280.44547	147.04720	57.43349	
66	0.650	277.08597	150.13696	192.38124	280.44815	147.04927	57.43259	
67	0.660	277.08182	150.13759	192.38034	280.44888	147.04982	57.43234	
68	0.670	277.07712	150.13785	192.38029	280.44727	147.04854	57.43291	
69	0.680	277.07300	150.13750	192.38091	280.44354	147.04561	57.43419	
70	0.690	277.07025	150.13651	192.38190	280.43866	147.04179	57.43586	
71	0.700	277.06915	150.13521	192.38303	280.43378	147.03798	57.43754	
72	0.710	277.06940	150.13419	192.38409	280.42972	147.03482	57.43893	
73	0.720	277.07074	150.13393	192.38487	280.42719	147.03287	57.43979	
74	0.730	277.07309	150.13470	192.38519	280.42664	147.03242	57.43999	
75	0.740	277.07629	150.13652	192.38493	280.42795	147.03343	57.43952	
76	0.750	277.08011	150.13898	192.38408	280.43063	147.03545	57.43857	
77	0.760	277.08426	150.14153	192.38274	280.43402	147.03790	57.43736	
78	0.770	277.08829	150.14369	192.38110	280.43753	147.04033	57.43607	
79	0.780	277.09167	150.14523	192.37953	280.44086	147.04248	57.43480	
80	0.790	277.09381	150.14603	192.37842	280.44379	147.04419	57.43362	
81	0.800	277.09433	150.14615	192.37817	280.44623	147.04547	57.43259	
82	0.810	277.09317	150.14592	192.37906	280.44812	147.04640	57.43180	
83	0.820	277.09070	150.14568	192.38103	280.44913	147.04704	57.43142	
84	0.830	277.08759	150.14551	192.38391	280.44882	147.04741	57.43172	
85	0.840	277.08475	150.14552	192.38728	280.44656	147.04755	57.43310	
86	0.850	277.08313	150.14551	192.39047	280.44156	147.04752	57.43598	
87	0.860	277.08325	150.14496	192.39259	280.43338	147.04750	57.44071	
88	0.870	277.08508	150.14349	192.39310	280.42200	147.04785	57.44738	
89	0.880	277.08783	150.14133	192.39197	280.40817	147.04893	57.45563	
90	0.890	277.09048	150.13922	192.38966	280.39386	147.05093	57.46439	
91	0.900	277.09216	150.13820	192.38690	280.38239	147.05348	57.47159	
92	0.910	277.09210	150.13927	192.38469	280.37881	147.05530	57.47392	
93	0.920	277.08969	150.14290	192.38406	280.39063	147.05424	57.46641	
94	0.930	277.08450	150.14886	192.38568	280.42838	147.04776	57.44225	
95	0.940	277.07623	150.15617	192.38962	280.50519	147.03343	57.39322	
96	0.950	277.06503	150.16336	192.39548	280.63434	147.00920	57.31117	
97	0.960	277.05096	150.16881	192.40298	280.82422	146.97382	57.19110	
98	0.970	277.03384	150.17125	192.41234	281.07001	146.92757	57.03602	
99	0.980	277.01303	150.17004	192.42433	281.34225	146.87415	56.86372	
100	0.990	276.98770	150.16534	192.44016	281.58435	146.82115	56.70824	
101	1.000	276.95703	150.15771	192.46123	281.73169	146.77739	56.60821	
102	1.010	276.92068	150.14775	192.48914	281.73315	146.74977	56.59393	
103	1.020	276.87991	150.13596	192.52563	281.56665	146.74171	56.67842	
104	1.030	276.83829	150.12289	192.57211	281.26257	146.75082	56.84393	
105	1.040	276.80316	150.10896	192.62883	280.89835	146.77011	57.04487	
106	1.050	276.78650	150.09348	192.69434	280.55099	146.79367	57.23553	
107	1.060	276.80484	150.07426	192.76599	280.26355	146.81966	57.38961	
108	1.070	276.87650	150.04794	192.84134	280.04904	146.84824	57.49922	
109	1.080	277.01764	150.01089	192.91887	279.90558	146.87920	57.56818	
110	1.090	277.23621	149.96080	192.99913	279.82715	146.91089	57.60722	
111	1.100	277.52347	149.89873	193.08705	279.80856	146.94058	57.63084	
112	1.110	277.85382	149.83014	193.19196	279.84555	146.96529	57.65491	
113	1.120	278.20160	149.76137	193.32111	279.93356	146.98238	57.69436	
114	1.130	278.54614	149.69775	193.47859	280.06708	146.99033	57.76136	
115	1.140	278.84796	149.64774	193.67754	280.23849	146.98982	57.86479	
116	1.150	279.04776	149.62300	193.94157	280.43527	146.98404	58.01073	
117	1.160	279.10437	149.63057	194.28706	280.63672	146.97792	58.20415	
118	1.170	279.02072	149.66766	194.71010	280.80966	146.97736	58.45287	
119	1.180	278.83121	149.72569	195.19235	280.91547	146.98718	58.76653	
120	1.190	278.57129	149.79787	195.71571	280.94211	147.00653	59.14136	
121	1.200	278.26233	149.88202	196.26936	280.92319	147.02666	59.55082	
122	1.210	277.92081	149.97662	196.84486	280.90674	147.03639	59.96373	
123	1.220	277.57266	150.07608	197.42993	280.91452	147.02867	60.36552	
124	1.230	277.25458	150.17111	198.00859	280.93060	147.00291	60.76263	
125	1.240	276.99747	150.25368	198.56683	280.91583	146.96373	61.17385	
126	1.250	276.81345	150.31944	199.09662	280.84970	146.91588	61.60869	
127	1.260	276.70203	150.36589	199.59418	280.76010	146.86249	62.05324	
128	1.270	276.65891	150.39165	200.05856	280.69989	146.81358	62.48508	
129	1.280	276.68045	150.39738	200.49106	280.70062	146.79128	62.89582	
130	1.290	276.76660	150.38492	200.89301	280.74765	146.81294	63.29604	
131	1.300	276.92081	150.35544	201.26367	280.80356	146.87135	63.69850	
132	1.310	277.14474	150.30910	201.60121	280.85208	146.94205	64.10152	
133	1.320	277.43115	150.24724	201.90758	280.89560	147.00536	64.49870	
134	1.330	277.75519	150.17598	202.19470	280.92096	147.05579	64.89879	
135	1.340	278.07190	150.10712	202.48441	280.89548	147.09798	65.32445	
136	1.350	278.34048	150.05161	202.79521	280.80222	147.13754	65.78843	
137	1.360	278.56122	150.01076	203.12709	280.66547	147.17435	66.27731	
138	1.370	278.76651	149.97748	203.46777	280.52985	147.20444	66.76516	
139	1.380	278.96869	149.94725	203.81470	280.43088	147.22467	67.23320	
140	1.390	279.14468	149.92267	204.17944	280.39047	147.23320	67.67264	
141	1.400	279.27451	149.90636	204.57080	280.42001	147.22864	68.08006	
142	1.410	279.36542	149.89603	204.98381	280.51935	147.21086	68.45417	
143	1.420	279.42755	149.88885	205.40938	280.67630	147.18219	68.79609	
144	1.430	279.44952	149.88681	205.84702	280.86679	147.14719	69.11365	
145	1.440	279.41418	149.89412	206.30179	281.05219	147.11256	69.42667	
146	1.450	279.31628	149.91382	206.77597	281.18430	147.08658	69.76315	
147	1.460	279.14520	149.95003	207.27251	281.23502	147.07462	70.13947	
148	1.470	278.87488	150.00856	207.79927	281.21292	147.07593	70.54926	
149	1.480	278.49850	150.08984	208.35919	281.13019	147.08783	70.98327	
150	1.490	278.06070	150.18382	208.93839	280.97562	147.11061	71.44704	
151	1.500	277.63943	150.27457	209.51042	280.74716	147.14389	71.94354	
152	1.510	277.30243	150.34891	210.05138	280.48648	147.18118	72.45405	
153	1.520	277.08594	150.39961	210.54774	280.25879	147.21234	72.94987	
154	1.530	277.00208	150.42343	210.99451	280.11746	147.22874	73.40935	
155	1.540	277.05093	150.41881	211.39174	280.09424	147.22527	73.81850	
156	1.550	277.22574	150.38550	211.74374	280.20123	147.19983	74.16915	
157	1.560	277.51038	150.32542	212.05858	280.43121	147.15343	74.46294	
158	1.570	277.87103	150.24525	212.34915	280.75433	147.09128	74.71587	
159	1.580	278.25348	150.15717	212.63431	281.11005	147.02475	74.96153	
160	1.590	278.59964	150.07436	212.93533	281.40768	146.97050	75.24799	
161	1.600	278.86310	150.00673	213.27122	281.56885	146.94267	75.61375	
162	1.610	279.01160	149.96048	213.65530	281.58646	146.94315	76.05730	
163	1.620	279.04263	149.93584	214.08675	281.51871	146.96234	76.54313	
164	1.630	278.99521	149.92542	214.54591	281.41867	146.99039	77.04088	
165	1.640	278.91711	149.92107	215.00980	281.29773	147.02368	77.54449	
166	1.650	278.81573	149.92276	215.47417	281.16046	147.06061	78.05070	
167	1.660	278.66101	149.93703	215.95290	281.03638	147.09651	78.53990	
168	1.670	278.43723	149.96626	216.45473	280.95532	147.12654	78.99241	
169	1.680	278.17416	150.00316	216.96825	280.91110	147.15048	79.41240	
170	1.690	277.92456	150.03656	217.47139	280.86618	147.17239	79.82529	
171	1.700	277.72055	150.06049	217.95148	280.79572	147.19490	80.25037	
172	1.710	277.55936	150.07607	218.41220	280.71408	147.21565	80.68306	
